<svg xmlns="http://www.w3.org/2000/svg" width="1200" height="360" viewBox="0 0 1200 360" role="img" aria-label="Squidiff LabFlow logo">
  <defs>
    <linearGradient id="bg" x1="0" y1="0" x2="1" y2="1">
      <stop offset="0%" stop-color="#0a2f5a"/>
      <stop offset="100%" stop-color="#0e8aa8"/>
    </linearGradient>
    <linearGradient id="tent" x1="0" y1="0" x2="0" y2="1">
      <stop offset="0%" stop-color="#79e3ff"/>
      <stop offset="100%" stop-color="#1bb7d9"/>
    </linearGradient>
  </defs>

  <rect x="0" y="0" width="1200" height="360" rx="28" fill="url(#bg)"/>

  <g transform="translate(120,50)">
    <ellipse cx="120" cy="95" rx="90" ry="85" fill="#8feaff" opacity="0.95"/>
    <circle cx="95" cy="85" r="10" fill="#103e6f"/>
    <circle cx="145" cy="85" r="10" fill="#103e6f"/>
    <path d="M62 168 C 40 230, 58 275, 80 300" stroke="url(#tent)" stroke-width="14" fill="none" stroke-linecap="round"/>
    <path d="M96 176 C 82 232, 100 280, 126 305" stroke="url(#tent)" stroke-width="14" fill="none" stroke-linecap="round"/>
    <path d="M130 176 C 126 232, 148 280, 172 305" stroke="url(#tent)" stroke-width="14" fill="none" stroke-linecap="round"/>
    <path d="M164 168 C 172 226, 198 274, 228 298" stroke="url(#tent)" stroke-width="14" fill="none" stroke-linecap="round"/>
  </g>

  <g transform="translate(400,98)">
    <text x="0" y="85" font-family="Segoe UI, Arial, sans-serif" font-size="78" font-weight="700" fill="#eaf8ff">Squidiff</text>
    <text x="2" y="146" font-family="Segoe UI, Arial, sans-serif" font-size="40" font-weight="500" fill="#bdefff">LabFlow Workspace</text>
    <text x="2" y="196" font-family="Consolas, monospace" font-size="24" fill="#96dff5">single-cell diffusion workflow</text>
  </g>
</svg>
